<svg xmlns="http://www.w3.org/2000/svg" viewBox="0 0 1243.19 327.67"><defs><style>.cls-1,.cls-2,.cls-5,.cls-6,.cls-7{fill:#727175;}.cls-1,.cls-2,.cls-3,.cls-4,.cls-5,.cls-6,.cls-7,.cls-8{stroke:#000;stroke-linecap:round;stroke-linejoin:round;}.cls-1,.cls-2,.cls-3,.cls-4{stroke-width:5px;}.cls-2{opacity:0.9;}.cls-3{fill:#191919;}.cls-4{fill:none;}.cls-5{stroke-width:5.36px;}.cls-6{stroke-width:5.32px;}.cls-7{stroke-width:5.47px;}.cls-8{fill:#ffa300;stroke-width:3.92px;}</style></defs><g id="Layer_2" data-name="Layer 2"><g id="tavan"><path class="cls-1" d="M794.27,124.37l-30-.68L702,40.59,721,37.43A138.63,138.63,0,0,0,629,2.5H408.8V210.67h23V42H678.19S790.58,197.89,789,197.89c0,0-286.22,11.49-346.28,12.78H841.33V182Z"/><path class="cls-2" d="M20.53,29.62A31.43,31.43,0,0,1,51.66,2.5H408.8V171.61H2.5Z"/><line class="cls-1" x1="42.02" y1="168.93" x2="58.72" y2="26.5"/><line class="cls-1" x1="21.13" y1="26.5" x2="408.8" y2="26.5"/><path class="cls-3" d="M355,158.13H88.69a16.48,16.48,0,0,1-16.65-18l6.21-82.31A17.47,17.47,0,0,1,95.35,42H361.62a16.49,16.49,0,0,1,16.65,18l-6.21,82.32A17.46,17.46,0,0,1,355,158.13Z"/><line class="cls-1" x1="681.02" y1="39.8" x2="408.8" y2="39.8"/><line class="cls-1" x1="431.76" y1="42" x2="431.76" y2="185.2"/><path class="cls-4" d="M789,197.89S724.2,111,690.28,57.8c-12.15-19.07-14.54-46.17-14.54-46.17"/><path class="cls-5" d="M794.63,168.86l14.09,32s239.48,1.3,238.17,0l-33.09-33.1a27.7,27.7,0,0,0-19.58-8.11H793.59Z"/><polygon class="cls-6" points="1089.54 176.76 1076.89 192.94 1083.78 223.33 1181.44 230.76 1208.5 230.76 1158.02 175.33 1089.54 176.76"/><rect class="cls-7" x="1177.98" y="233.89" width="62.48" height="91.04" rx="9.39"/><rect class="cls-8" x="1164.61" y="246.82" width="44.74" height="65.19" rx="6.72"/></g></g></svg>